<?xml version="1.0" encoding="UTF-8"?>
<svg width="58px" height="58px" viewBox="0 0 58 58" version="1.1" xmlns="http://www.w3.org/2000/svg" xmlns:xlink="http://www.w3.org/1999/xlink">
    <title>Group 11</title>
    <g id="First-Batch" stroke="none" stroke-width="1" fill="none" fill-rule="evenodd">
        <g id="W_Job_Singlepage_Eng-Copy" transform="translate(-74.000000, -3001.000000)">
            <g id="Group-11" transform="translate(74.000000, 3001.000000)">
                <rect id="Rectangle" fill="#ff4650" x="0" y="0" width="58" height="58" rx="29"></rect>
                <g id="Group-9" transform="translate(11.000000, 11.000000)" fill="#FFFFFF" stroke="#FFFFFF" stroke-linecap="round" stroke-linejoin="round" stroke-width="2">
                    <path d="M18,0 C18.0659396,0 18.1317963,0.000354562671 18.1975685,0.00106188551 L18.1527743,0.181565408 L18.1042625,0.409633321 C17.4192867,3.93352852 19.7206856,7.34549264 23.2445808,8.03046848 C24.3821063,8.25158104 25.5079683,8.1615072 26.533279,7.81996874 C27.1319461,9.65821976 28.6836984,11.1251592 30.7159802,11.5201948 C32.0786747,11.7850758 33.421588,11.5221852 34.5335127,10.8739842 C35.4773483,13.0587497 36,15.4683377 36,18 C36,27.9411429 27.9411429,36 18,36 C8.05885714,36 0,27.9411429 0,18 C0,8.05885714 8.05885714,0 18,0 Z M17.5,24 C15.5670034,24 14,25.5670034 14,27.5 C14,29.4329966 15.5670034,31 17.5,31 C19.4329966,31 21,29.4329966 21,27.5 C21,25.5670034 19.4329966,24 17.5,24 Z M27.5,13 C25.5670034,13 24,14.5670034 24,16.5 C24,18.4329966 25.5670034,20 27.5,20 C29.4329966,20 31,18.4329966 31,16.5 C31,14.5670034 29.4329966,13 27.5,13 Z M11.5,9 C9.01471863,9 7,11.0147186 7,13.5 C7,15.9852814 9.01471863,18 11.5,18 C13.9852814,18 16,15.9852814 16,13.5 C16,11.0147186 13.9852814,9 11.5,9 Z" id="Combined-Shape"></path>
                </g>
            </g>
        </g>
    </g>
</svg>