<svg xmlns="http://www.w3.org/2000/svg" viewBox="0 0 30 30">
  <g fill="none" fill-rule="evenodd">
    <rect width="30" height="30"/>
    <g stroke="#000" stroke-linecap="round" stroke-linejoin="round" stroke-width="1.543" transform="translate(5 5)">
      <path d="M13.1142857 7.71428571C15.2445086 7.71428571 16.9714286 5.98738114 16.9714286 3.85714286 16.9714286 1.72690457 15.2445086 0 13.1142857 0 10.9840474 0 9.25714286 1.72690457 9.25714286 3.85714286 9.25714286 5.98738114 10.9840474 7.71428571 13.1142857 7.71428571zM13.1142857 11.5714113C14.026608 11.569392 14.9303829 11.7475766 15.7735543 12.0957686 16.61688 12.4439606 17.3830629 12.9552943 18.0281314 13.6004091 18.6732 14.2455086 19.1846571 15.0116914 19.5327257 15.8550171 19.8809486 16.6981886 20.0591486 17.6019943 20.0571596 18.5142857"/>
      <polygon points="9.257 10.8 0 10.8 1.543 18.514 10.8 18.514"/>
      <line x1="10.8" x2="15.429" y1="18.514" y2="18.514"/>
    </g>
  </g>
</svg>
