<svg xmlns="http://www.w3.org/2000/svg" viewBox="0 0 28 28">
  <g fill="none" fill-rule="evenodd" stroke="#545056" stroke-linecap="round" stroke-linejoin="round" stroke-width="2.206" transform="translate(2 2)">
    <path d="M17.6445439,11.9998564 C17.6441195,15.046518 15.1759304,17.5207553 12.1205368,17.5374842 C9.06514334,17.5540443 6.56998959,15.1068452 6.53618083,12.0603701 C6.50237207,9.01389504 8.94260508,6.51223888 11.9976198,6.46146116 C13.486699,6.43671102 14.923369,7.00927428 15.9851202,8.05061955 C17.0468714,9.09196482 17.6447507,10.5148488 17.6445439,11.9998564 L17.6445439,11.9998564 Z"/>
    <path d="M17.6445439,11.9998564 L17.6445439,14.3998277 C17.6445439,20.8428276 27.7719783,14.7690541 22.4583152,6.01838954 C20.2815003,2.31149262 16.3055566,0.0239986555 11.9976198,0 C7.13164399,0.0149848284 2.75354969,2.9504063 0.903791986,7.43818157 C-0.945965718,11.9259568 0.0966603145,17.0828558 3.54574369,20.5054535 C6.99482706,23.9280512 12.1715605,24.9427531 16.6632751,23.076647"/>
  </g>
</svg>
