<svg width="85px" height="85px" xmlns="http://www.w3.org/2000/svg" xmlns:xlink="http://www.w3.org/1999/xlink" viewBox="0 0 85 85">
  <defs>
    <polygon id="group_49-a" points="0 64 64 64 64 0 0 0"/>
  </defs>
  <g fill="none" fill-rule="evenodd">
    <g transform="translate(11 11)">
      <path fill="#FF4650" d="M33.76008 0C29.34188 0 25.76008 3.5818 25.76008 8 25.76008 12.4182 29.34188 16 33.76008 16 38.17828 16 41.76008 12.4182 41.76008 8 41.76008 3.5818 38.17828 0 33.76008 0M33.76008 3.2C36.40688 3.2 38.56008 5.3532 38.56008 8 38.56008 10.6468 36.40688 12.8 33.76008 12.8 31.11328 12.8 28.96008 10.6468 28.96008 8 28.96008 5.3532 31.11328 3.2 33.76008 3.2M38.4001 19.2L27.0855 19.2C26.2369 19.2 25.4229 19.5372 24.8229 20.1372L17.0973 27.8628C16.4973 28.4628 16.1601 29.2768 16.1601 30.1254L16.1601 30.4 19.3601 30.4 19.3601 30.1254 27.0855 22.4 38.4001 22.4 38.4001 60.8 19.3601 60.8 19.3601 43.2 16.1601 43.2 16.1601 60.8C16.1601 62.5674 17.5927 64 19.3601 64L38.4001 64C40.1675 64 41.6001 62.5674 41.6001 60.8L41.6001 22.4C41.6001 20.6326 40.1675 19.2 38.4001 19.2"/>
      <path fill="#FF4650" d="M25.76008,28.8 L9.76008,28.8 C7.99268,28.8 6.56008,30.2326 6.56008,32 L6.56008,41.6 C6.56008,43.3674 7.99268,44.8 9.76008,44.8 L25.76008,44.8 C27.52748,44.8 28.96008,43.3674 28.96008,41.6 L28.96008,32 C28.96008,30.2326 27.52748,28.8 25.76008,28.8 L25.76008,28.8 Z M9.76008,41.6 L25.76008,41.6 L25.76008,32 L9.76008,32 L9.76008,41.6 Z"/>
      <mask id="group_49-b" fill="#fff">
        <use xlink:href="#group_49-a"/>
      </mask>
      <polygon fill="#FF4650" points="0 44.926 64 44.926 64 41.726 0 41.726" mask="url(#group_49-b)"/>
      <polygon fill="#FF4650" points="44.88 38.4 60.88 38.4 60.88 35.2 44.88 35.2" mask="url(#group_49-b)"/>
      <polygon fill="#FF4650" points="44.88 31.932 60.88 31.932 60.88 28.732 44.88 28.732" mask="url(#group_49-b)"/>
      <polygon fill="#FF4650" points="44.88 25.664 60.88 25.664 60.88 22.464 44.88 22.464" mask="url(#group_49-b)"/>
    </g>
    <rect width="85" height="85"/>
  </g>
</svg>
