<svg xmlns="http://www.w3.org/2000/svg" viewBox="0 0 30 30">
  <g fill="none" fill-rule="evenodd">
    <rect width="30" height="30"/>
    <g stroke="#140A23" stroke-linecap="round" stroke-linejoin="round" stroke-width="1.371" transform="translate(6 5)">
      <path d="M18,1 L18,15.50003 C18,16.0523147 17.5522847,16.50003 17,16.50003 L4.28657082,16.50003 C4.09914194,16.50003 3.91548571,16.5527046 3.75654901,16.652046 L1.53002181,18.043709 C1.06169317,18.336432 0.444738951,18.1940754 0.152015989,17.7257468 C0.0526745934,17.5668101 -3.10113489e-16,17.3831539 0,17.195725 L0,1 C-6.76353751e-17,0.44771525 0.44771525,3.23497668e-16 1,0 L17,0 C17.5522847,-1.01453063e-16 18,0.44771525 18,1 Z"/>
      <polygon points="4.127 7.954 4.873 7.954 4.873 8.7 4.127 8.7"/>
      <polygon points="8.627 7.954 9.373 7.954 9.373 8.7 8.627 8.7"/>
      <polygon points="13.127 7.954 13.873 7.954 13.873 8.7 13.127 8.7"/>
    </g>
  </g>
</svg>
