<svg xmlns="http://www.w3.org/2000/svg" viewBox="0 0 34 31">
  <g fill="#FF4650" fill-rule="evenodd">
    <path d="M30.2735505,14.2237826 C28.6333991,14.4738219 27.3711793,15.9257006 27.3711793,17.6737639 L27.3711793,28.0279829 L2.90237125,28.0279829 L2.90237125,2.97201706 L22.3705314,2.97201706 C24.0776308,2.97201706 25.4953424,1.67950882 25.7396663,0 L3.40628014,0 C1.52799574,0 0,1.56466179 0,3.48801784 L0,27.5119822 C0,29.4353382 1.52799574,31 3.40628014,31 L26.8672704,31 C28.7455548,31 30.2735505,29.4353382 30.2735505,27.5119822 L30.2735505,14.2237826 Z"/>
    <path d="M12.661618,21.8263022 C13.3274976,22.4738095 14.2078984,22.8304398 15.1407058,22.8304398 C16.1066271,22.8304398 17.0080481,22.4531695 17.6814144,21.7674782 L34,1.76669821 L31.9171286,0.109598566 L15.6515254,19.6433241 L15.6377039,19.6574773 C15.371928,19.9305154 14.9336712,19.9368548 14.6606965,19.6717778 L9.47533006,14.6277965 L7.47639547,16.7826158 L12.661618,21.8263022 Z"/>
  </g>
</svg>
